<svg width="1756" height="681" viewBox="0 0 1756 681" fill="none" xmlns="http://www.w3.org/2000/svg">
<g opacity="0.3">
<path d="M0.777832 540.818V403.3C32.4367 367.683 60.1381 333.386 83.8822 300.409C108.286 266.771 129.722 234.123 148.189 202.464C166.657 170.805 182.486 139.146 195.677 107.488C209.528 75.8287 222.06 44.1699 233.272 12.5111H473.682V666.464H332.206V114.413H325.281C310.771 153.986 293.952 191.581 274.825 227.197C255.697 262.154 234.921 295.462 212.496 327.121C190.731 358.779 167.316 388.789 142.253 417.15V424.076H560.743V540.818H0.777832Z" fill="#0255D3"/>
<path d="M893.509 680.314C850.637 680.314 812.383 672.73 778.746 657.56C745.768 641.73 717.407 619.305 693.662 590.285C670.578 561.264 653.1 525.978 641.228 484.425C629.355 442.873 623.419 396.045 623.419 343.939C623.419 270.069 634.632 207.74 657.057 156.954C679.482 105.509 711.141 66.5949 752.033 40.2125C793.586 13.8302 842.393 0.638992 898.455 0.638992C954.518 0.638992 1002.67 14.1599 1042.9 41.2019C1083.13 67.5842 1113.8 106.168 1134.91 156.954C1156.67 207.74 1167.56 269.079 1167.56 340.971C1167.56 393.736 1161.29 441.224 1148.76 483.436C1136.23 524.988 1118.09 560.604 1094.34 590.285C1070.6 619.305 1041.91 641.73 1008.27 657.56C974.634 672.73 936.38 680.314 893.509 680.314ZM897.466 565.551C915.934 565.551 932.753 561.594 947.922 553.679C963.092 545.105 976.283 531.914 987.496 514.106C998.708 496.298 1007.28 473.543 1013.22 445.841C1019.15 418.14 1022.12 385.162 1022.12 346.907C1022.12 296.781 1017.18 254.569 1007.28 220.272C997.389 185.315 982.879 158.933 963.752 141.125C945.284 123.317 922.529 114.413 895.487 114.413C871.743 114.413 850.308 122.328 831.18 138.157C812.053 153.327 796.883 177.731 785.671 211.368C774.458 244.346 768.852 287.877 768.852 341.961C768.852 380.215 771.82 413.523 777.756 441.884C783.692 469.585 792.266 492.67 803.479 511.138C815.351 529.605 828.872 543.456 844.042 552.69C859.871 561.264 877.679 565.551 897.466 565.551Z" fill="#0255D3"/>
<path d="M1480.19 680.314C1437.32 680.314 1399.72 676.027 1367.4 667.453C1335.08 658.879 1308.04 646.347 1286.28 629.858C1265.17 612.71 1249.01 591.934 1237.8 567.53C1227.25 543.126 1221.97 515.095 1221.97 483.436L1353.55 453.756C1352.89 472.224 1355.53 488.713 1361.47 503.223C1368.06 517.733 1377.3 529.935 1389.17 539.828C1401.04 549.062 1414.89 556.317 1430.72 561.594C1447.21 566.211 1465.68 568.519 1486.12 568.519C1509.87 568.519 1530.97 565.221 1549.44 558.626C1568.57 551.371 1583.41 540.488 1593.96 525.978C1605.17 511.467 1610.78 492.67 1610.78 469.585C1610.78 440.565 1601.22 417.15 1582.09 399.342C1563.62 381.534 1534.93 369.662 1496.02 363.726C1457.76 357.131 1408.95 356.471 1349.59 361.747V277.654L1558.34 135.189V128.264L1253.63 130.242V12.5111H1714.66V137.168L1504.92 285.568V292.494C1564.94 289.856 1613.09 296.781 1649.36 313.27C1686.3 329.099 1713.01 351.854 1729.5 381.534C1746.65 410.555 1755.22 442.543 1755.22 477.5C1755.22 519.052 1745 554.998 1724.55 585.338C1704.77 615.018 1674.43 638.432 1633.53 655.581C1593.3 672.07 1542.18 680.314 1480.19 680.314Z" fill="#0255D3"/>
</g>
</svg>
