<svg width="1803" height="713" viewBox="0 0 1803 713" fill="none" xmlns="http://www.w3.org/2000/svg">
<g opacity="0.3">
<path d="M0 568.949V425.935C32.4754 390.699 61.1505 356.155 86.0253 322.301C110.9 287.756 132.665 253.903 151.322 220.74C169.978 186.886 186.561 153.032 201.071 119.179C216.272 84.6342 230.437 49.3987 243.566 13.4724H488.167V698.491H338.919V127.469H334.773C321.645 166.85 305.407 204.849 286.06 241.467C267.404 278.084 246.675 312.974 223.873 346.137C201.071 378.609 176.887 409.699 151.322 439.407V443.552H576.266V568.949H0Z" fill="#0255D3"/>
<path d="M899.476 713C854.563 713 814.832 704.709 780.284 688.128C746.427 671.547 717.752 648.056 694.259 617.657C671.457 586.567 654.183 549.604 642.436 506.769C631.381 463.243 625.853 414.88 625.853 361.682C625.853 284.993 636.563 219.703 657.983 165.814C680.094 111.924 711.878 70.8164 753.336 42.4898C795.485 14.1633 846.271 0 905.694 0C965.117 0 1014.87 14.1633 1054.94 42.4898C1095.71 70.8164 1126.46 111.924 1147.19 165.814C1168.61 219.013 1179.32 282.92 1179.32 357.536C1179.32 411.426 1173.44 460.134 1161.7 503.66C1149.95 547.186 1132.33 584.494 1108.84 615.584C1085.35 646.674 1055.98 670.856 1020.74 688.128C986.192 704.709 945.77 713 899.476 713ZM903.622 591.748C925.042 591.748 943.007 587.258 957.517 578.276C972.718 568.604 985.156 554.44 994.829 535.786C1005.19 516.441 1012.45 492.606 1016.59 464.279C1021.43 435.262 1023.85 402.099 1023.85 364.791C1023.85 311.592 1019.7 267.03 1011.41 231.103C1003.12 195.177 989.992 168.232 972.027 150.269C954.062 131.615 930.569 122.288 901.549 122.288C874.601 122.288 852.145 131.269 834.179 149.233C816.214 166.505 802.74 192.759 793.758 227.994C784.775 263.23 780.284 307.101 780.284 359.609C780.284 397.608 782.703 431.116 787.539 460.134C793.067 489.151 801.013 513.332 811.378 532.677C821.742 552.022 834.525 566.876 849.726 577.24C864.927 586.912 882.893 591.748 903.622 591.748Z" fill="#0255D3"/>
<path d="M1226.73 568.949V425.935C1259.21 390.699 1287.88 356.155 1312.76 322.301C1337.63 287.756 1359.4 253.903 1378.06 220.74C1396.71 186.886 1413.3 153.032 1427.81 119.179C1443.01 84.6342 1457.17 49.3987 1470.3 13.4724H1714.9V698.491H1565.65V127.469H1561.51C1548.38 166.85 1532.14 204.849 1512.79 241.467C1494.14 278.084 1473.41 312.974 1450.61 346.137C1427.81 378.609 1403.62 409.699 1378.06 439.407V443.552H1803V568.949H1226.73Z" fill="#0255D3"/>
</g>
</svg>
