<svg width="1568" height="611" viewBox="0 0 1568 611" fill="none" xmlns="http://www.w3.org/2000/svg">
<path d="M218.576 610.863C172.38 610.863 132.698 604.348 99.5306 591.318C66.9559 577.696 42.0806 558.151 24.9049 532.683C7.72909 507.216 -0.562656 476.418 0.0296135 440.29L120.852 421.633C122.629 449.47 132.105 470.791 149.281 485.598C167.049 499.813 190.74 506.92 220.353 506.92C253.52 506.92 278.692 497.74 295.867 479.379C313.043 460.427 321.631 433.182 321.631 397.646C321.631 380.471 319.854 365.368 316.301 352.338C312.747 338.716 307.417 327.167 300.309 317.69C293.202 307.622 284.022 300.218 272.769 295.48C261.516 290.15 247.894 287.485 231.902 287.485C220.649 287.485 209.989 289.261 199.92 292.815C190.444 295.776 181.856 300.218 174.156 306.141C167.049 311.471 160.534 318.283 154.612 326.574C149.281 334.274 144.839 342.862 141.285 352.338H10.6904L36.4541 12.0801H429.128V118.688H143.951L128.848 299.034H135.067C145.135 266.459 162.903 241.288 188.371 223.52C213.838 205.752 244.932 196.868 281.653 196.868C320.15 196.868 352.133 205.159 377.6 221.743C403.068 238.326 422.02 261.721 434.458 291.927C447.488 322.132 454.003 357.372 454.003 397.646C454.003 446.212 444.527 486.487 425.574 518.469C406.622 549.859 379.377 573.254 343.841 588.653C308.897 603.459 267.142 610.863 218.576 610.863Z" fill="#0255D3" fill-opacity="0.2"/>
<path d="M762.306 610.863C723.809 610.863 689.457 604.052 659.251 590.43C629.638 576.215 604.171 556.078 582.849 530.018C562.12 503.958 546.424 472.272 535.764 434.959C525.103 397.646 519.772 355.595 519.772 308.806C519.772 242.472 529.841 186.503 549.978 140.898C570.115 94.7014 598.544 59.7576 635.265 36.0669C672.578 12.3762 716.405 0.530823 766.748 0.530823C817.091 0.530823 860.326 12.6723 896.455 36.9553C932.583 60.646 960.124 95.2937 979.076 140.898C998.621 186.503 1008.39 241.584 1008.39 306.141C1008.39 353.522 1002.77 396.166 991.514 434.071C980.261 471.384 963.973 503.366 942.652 530.018C921.33 556.078 895.566 576.215 865.361 590.43C835.155 604.052 800.804 610.863 762.306 610.863ZM765.86 507.808C782.443 507.808 797.546 504.255 811.168 497.147C824.79 489.448 836.636 477.603 846.704 461.611C856.773 445.62 864.472 425.187 869.803 400.312C875.133 375.436 877.798 345.823 877.798 311.471C877.798 266.459 873.356 228.554 864.472 197.756C855.588 166.366 842.558 142.675 825.383 126.684C808.799 110.693 788.366 102.697 764.083 102.697C742.761 102.697 723.513 109.804 706.337 124.019C689.161 137.641 675.539 159.555 665.47 189.76C655.402 219.374 650.367 258.463 650.367 307.029C650.367 341.381 653.033 371.29 658.363 396.758C663.693 421.633 671.393 442.363 681.462 458.946C692.122 475.53 704.264 487.967 717.886 496.259C732.1 503.958 748.092 507.808 765.86 507.808Z" fill="#0255D3" fill-opacity="0.2"/>
<path d="M1321.03 610.863C1282.53 610.863 1248.18 604.052 1217.97 590.43C1188.36 576.215 1162.89 556.078 1141.57 530.018C1120.84 503.958 1105.15 472.272 1094.48 434.959C1083.82 397.646 1078.49 355.595 1078.49 308.806C1078.49 242.472 1088.56 186.503 1108.7 140.898C1128.84 94.7014 1157.27 59.7576 1193.99 36.0669C1231.3 12.3762 1275.13 0.530823 1325.47 0.530823C1375.81 0.530823 1419.05 12.6723 1455.18 36.9553C1491.3 60.646 1518.85 95.2937 1537.8 140.898C1557.34 186.503 1567.11 241.584 1567.11 306.141C1567.11 353.522 1561.49 396.166 1550.24 434.071C1538.98 471.384 1522.69 503.366 1501.37 530.018C1480.05 556.078 1454.29 576.215 1424.08 590.43C1393.88 604.052 1359.52 610.863 1321.03 610.863ZM1324.58 507.808C1341.16 507.808 1356.27 504.255 1369.89 497.147C1383.51 489.448 1395.36 477.603 1405.43 461.611C1415.49 445.62 1423.19 425.187 1428.52 400.312C1433.85 375.436 1436.52 345.823 1436.52 311.471C1436.52 266.459 1432.08 228.554 1423.19 197.756C1414.31 166.366 1401.28 142.675 1384.1 126.684C1367.52 110.693 1347.09 102.697 1322.8 102.697C1301.48 102.697 1282.23 109.804 1265.06 124.019C1247.88 137.641 1234.26 159.555 1224.19 189.76C1214.12 219.374 1209.09 258.463 1209.09 307.029C1209.09 341.381 1211.75 371.29 1217.08 396.758C1222.41 421.633 1230.11 442.363 1240.18 458.946C1250.84 475.53 1262.99 487.967 1276.61 496.259C1290.82 503.958 1306.81 507.808 1324.58 507.808Z" fill="#0255D3" fill-opacity="0.2"/>
</svg>
