<svg width="1650" height="656" viewBox="0 0 1650 656" fill="none" xmlns="http://www.w3.org/2000/svg">
<g opacity="0.3">
<path d="M234.888 656C185.274 656 142.658 649.003 107.038 635.01C72.0541 620.38 45.3392 599.39 26.8932 572.039C8.44718 544.688 -0.457782 511.612 0.178288 472.812L129.936 452.776C131.845 482.671 142.022 505.57 160.468 521.471C179.55 536.737 204.993 544.37 236.796 544.37C272.416 544.37 299.449 534.511 317.895 514.793C336.341 494.438 345.564 465.179 345.564 427.015C345.564 408.569 343.656 392.349 339.839 378.356C336.023 363.726 330.298 351.323 322.665 341.146C315.032 330.333 305.173 322.382 293.088 317.293C281.003 311.569 266.373 308.706 249.199 308.706C237.114 308.706 225.665 310.615 214.852 314.431C204.674 317.611 195.451 322.382 187.183 328.742C179.55 334.467 172.553 341.782 166.192 350.687C160.468 358.956 155.697 368.179 151.881 378.356H11.6275L39.2965 12.9342H461.01V127.427H154.743L138.523 321.11H145.202C156.015 286.126 175.097 259.093 202.448 240.011C229.799 220.929 263.193 211.388 302.629 211.388C343.974 211.388 378.321 220.293 405.672 238.103C433.023 255.913 453.378 281.037 466.735 313.477C480.729 345.916 487.725 383.762 487.725 427.015C487.725 479.173 477.548 522.426 457.194 556.773C436.84 590.485 407.581 615.61 369.416 632.147C331.888 648.049 287.045 656 234.888 656Z" fill="#0255D3"/>
<path d="M818.829 656C777.484 656 740.592 648.685 708.153 634.056C676.349 618.79 648.999 597.164 626.1 569.177C603.838 541.19 586.982 507.16 575.533 467.087C564.083 427.015 558.359 381.854 558.359 331.605C558.359 260.365 569.172 200.257 590.798 151.279C612.425 101.666 642.956 64.1377 682.392 38.695C722.465 13.2522 769.534 0.530823 823.599 0.530823C877.665 0.530823 924.098 13.5702 962.899 39.6491C1001.7 65.0919 1031.28 102.302 1051.63 151.279C1072.62 200.257 1083.12 259.411 1083.12 328.742C1083.12 379.628 1077.07 425.425 1064.99 466.133C1052.9 506.206 1035.41 540.553 1012.51 569.177C989.614 597.164 961.945 618.79 929.505 634.056C897.065 648.685 860.173 656 818.829 656ZM822.645 545.324C840.455 545.324 856.675 541.508 871.305 533.875C885.934 525.606 898.656 512.884 909.469 495.711C920.282 478.537 928.551 456.592 934.276 429.877C940 403.163 942.862 371.359 942.862 334.467C942.862 286.126 938.092 245.417 928.551 212.342C919.01 178.63 905.016 153.187 886.57 136.014C868.76 118.84 846.816 110.253 820.737 110.253C797.839 110.253 777.167 117.886 758.72 133.151C740.274 147.781 725.645 171.315 714.832 203.755C704.018 235.558 698.612 277.539 698.612 329.697C698.612 366.589 701.474 398.71 707.199 426.061C712.923 452.776 721.192 475.038 732.006 492.848C743.455 510.658 756.494 524.016 771.124 532.921C786.389 541.19 803.563 545.324 822.645 545.324Z" fill="#0255D3"/>
<path d="M1384.61 656C1343.27 656 1307.01 651.866 1275.84 643.597C1244.68 635.328 1218.6 623.242 1197.61 607.341C1177.25 590.803 1161.67 570.767 1150.86 547.232C1140.68 523.698 1135.59 496.665 1135.59 466.133L1262.49 437.51C1261.85 455.32 1264.4 471.222 1270.12 485.215C1276.48 499.209 1285.39 510.976 1296.83 520.517C1308.28 529.422 1321.64 536.419 1336.91 541.508C1352.81 545.96 1370.62 548.186 1390.34 548.186C1413.24 548.186 1433.59 545.006 1451.4 538.645C1469.85 531.648 1484.16 521.153 1494.33 507.16C1505.15 493.166 1510.55 475.038 1510.55 452.776C1510.55 424.789 1501.33 402.208 1482.89 385.035C1465.08 367.861 1437.41 356.411 1399.88 350.687C1362.99 344.326 1315.92 343.69 1258.67 348.779V267.68L1459.99 130.289V123.61L1166.12 125.518V11.9801H1610.73V132.197L1408.46 275.313V281.991C1466.35 279.447 1512.78 286.126 1547.76 302.028C1583.38 317.293 1609.14 339.238 1625.05 367.861C1641.58 395.848 1649.85 426.697 1649.85 460.409C1649.85 500.481 1639.99 535.147 1620.28 564.406C1601.19 593.029 1571.93 615.61 1532.5 632.147C1493.7 648.049 1444.4 656 1384.61 656Z" fill="#0255D3"/>
</g>
</svg>
